<?xml version="1.0" standalone="no"?><!DOCTYPE svg PUBLIC "-//W3C//DTD SVG 1.1//EN" "http://www.w3.org/Graphics/SVG/1.1/DTD/svg11.dtd"><svg t="1594966205569" class="icon" viewBox="0 0 1024 1024" version="1.1" xmlns="http://www.w3.org/2000/svg" p-id="1792" xmlns:xlink="http://www.w3.org/1999/xlink" width="200" height="200"><defs><style type="text/css"></style></defs><path d="M951.8 434.9c-0.7-1.6-1.6-3.9-2.7-6.6-1.6-4-3.6-9.1-5.9-14.8-3.8-9.8-8.4-21.7-13-33.8-4.6-12.1-9.3-24.5-13.4-35.5-1.7-4.7-3.4-9.2-4.8-13.2-1.9-5.4-3.6-10-4.9-13.7-1-2.5-2.5-4.6-4.3-6.5-0.1-0.3-0.2-0.6-0.3-0.8 0 0.1-0.1 0.3-0.1 0.4-10.4-10.2-31.2-11.9-43.6-13.6-27.7-3.9-59.3-4.8-93.9-2.8-54 3.1-115.4 13.4-180.7 30.9-64.6 17.3-132.9 41.5-201.7 72.9-50.9 23.2-100.7 48.3-156.5 61.6l2.6-2.6c14.9-14.2 30.1-28.5 46.3-41 14.7-11.3 34.4-23.6 55.3-35.6s43-23.6 62.7-33.7c19.7-10.1 36.9-18.8 48.1-24.8-6.5-0.1-18 1.2-33 3.8-15 2.6-33.5 6.4-54.1 11.1-20.6 4.6-43.3 10.2-66.7 16.3-23.4 6.1-47.3 12.8-70.4 19.8-23.1 6.9-45.3 14.1-65.2 21.2-27.2 9.8-49.9 19.3-63.9 27.8-10.4 6.3-16.1 12.1-15.4 16.8 0.1 0.5 0.6 1.8 1.4 3.5 1.5 3.8 3.4 8.2 5.6 13.1 2.2 4.9 4.7 10.3 7.3 16 6.3 13.2 13.7 28.3 21.3 43.2 7.5 14.9 15.2 29.8 21.9 42.6 4 7.5 7.6 14.4 10.7 20.1 2.2 4 4.1 7.5 5.6 10.3 11.2 10.6 25.7 18.3 43.5 22.7 9.2 2.2 19.3 3.5 30.3 3.8-8.2 12.2-14.9 24.3-19.8 36-8.2 19.9-11.6 38.9-9.7 56.1 0.7 5.8 2.1 11.3 4.1 16.6 5.8 22.3 22.4 39.8 36.9 58.2 7.4 9.4 15.2 19.3 23.1 29.2 11 13.9 22.1 27.8 32.3 40.6 16.9 21.2 31.3 39.2 38.9 48.7-2.1-3.1-4.2-6.7-6.2-10.7 5.3 6.6 10.1 12.7 14.3 17.9 7.3 9.1 19.4 16.2 35 21.5 26.8 9.2 63.9 13.2 104.4 13.2 39.9 0 83.1-4 123-11.1 36.6-6.5 72.4-15.6 106-30 30-12.8 67.9-32.5 99.3-55.4 21.1-15.4 39.2-32.4 49.9-49.8 7.8-12.6 10-25.5 10.4-39.1l0.3 5.1-0.3-32.2c-0.1-10.8-1.1-123.1-1.2-127.3-0.2-11.8-4.4-26-16.1-34.9-17-12.9-45.8-15.6-65.9-17.3-37.1-3.1-75.3 2-111 11.3-35.8 9.3-69.1 23-96.2 36.8-27.5 14-48.5 28.2-58.9 38.1 54.4-9.1 103.1-10.5 145.9-6.4 42.8 4 79.4 13.5 109.5 26.5 16.8 7.3 31.4 15.7 44 24.9-6.1 5.5-12.7 10.9-19.7 16.1-37.1 27.4-86.5 50.4-141.4 68-55.1 17.6-115.4 29.9-173.9 35.6-58.5 5.8-115.1 5.2-162.1-2.8-2.3-0.4-4.5-0.8-6.8-1.2 1.7-9.1 4-17.9 7.1-26.5 11.3-30.9 35.2-73.6 78.7-114.4 21.8-20.4 48.5-40.4 81-58.2 20.1-11.1 41.5-20.9 63.5-29.7 54.2-21.5 112.6-37 168.2-49.3 43.9-9.7 86-17.3 122.8-24.5 9.7-1.9 18.9-3.7 27.8-5.5 15.5-3.1 31.7-5.9 46.8-10.7 6.2-2 12.2-4.3 17.8-7.1 4.4-2.2 9.2-4.9 13.5-8.2 9.7-7.3 17.1-17.4 13.5-29.5 1.1 0.8 2.2 1.6 3.1 2.5zM353.4 237.5c45.4 16 98.7 19.3 149.5 13.8 40.1-4.3 78.6-14 110.4-27.2 8.3-3.4 18.1-6.9 28.8-10 17.3-5 39.2-8.4 57.1-8.7-0.3 0.4-0.7 0.8-1 1.2-13.2 15-30.7 31-50.8 46.9-19.3 15.3-41 30.7-63.6 44.8 12.1-1.7 23.9-3.7 35.2-5.8 11.3-2.2 22.2-4.5 32.6-7 10.4-2.5 20.3-5.2 29.7-7.9 9.3-2.8 18.2-5.7 26.4-8.7 8.2-3 15.8-6.1 22.8-9.2 22.6-10.2 38.2-21 45-30.9 8.8-12.8-2.7-26.5-9.5-38.8-7.7-14.1-16.9-30.2-25.6-45.4-8.6-15.2-16.7-29.4-22.3-39.6l0.6 1.2c-6.2-10.3-19.7-17.3-38.2-20.7-12.8-2.4-28-3-45-1.9-50.8 3.3-96.3 20.7-142.7 38.7-40.5 15.8-82.7 28.3-123.2 34.3-41.7 6.3-81.5 5.8-115.6-4.6 19.1 42.5 55.4 70 99.4 85.5z" p-id="1793" fill="#e1e1e1"></path><path d="M325.6 899c1.9 2.8 3.9 5.3 5.8 7.2 0 0-2.1-2.6-5.8-7.2z" p-id="1794" fill="#e1e1e1"></path></svg>