<?xml version="1.0" standalone="no"?><!DOCTYPE svg PUBLIC "-//W3C//DTD SVG 1.1//EN" "http://www.w3.org/Graphics/SVG/1.1/DTD/svg11.dtd"><svg t="1638432899672" class="icon" viewBox="0 0 1024 1024" version="1.1" xmlns="http://www.w3.org/2000/svg" p-id="12845" xmlns:xlink="http://www.w3.org/1999/xlink" width="200" height="200"><defs><style type="text/css"></style></defs><path d="M695.633 62.787v163.221c0 21.306 17.18 38.6 38.6 38.6h160.873L695.633 62.789z m38.599 241.538c-43.285 0-78.426-35.146-78.426-78.431V62.455H196.28c-38.16 0-69.172 30.903-69.172 69.172v752.935c0 38.152 30.903 69.17 69.172 69.17h629.322c38.153 0 69.172-30.902 69.172-69.17V304.435H734.232v-0.11z m-51.319 292.292L400.66 765.857c-18.853 11.27-42.839-2.343-42.839-24.318V403.054c0-21.975 23.986-35.473 42.84-24.316l282.252 169.24c18.298 11.041 18.298 37.706 0 48.64z m0 0" p-id="12846" fill="#1296db"></path></svg>