<svg t="1625627501565" class="icon" viewBox="0 0 1024 1024" version="1.1" xmlns="http://www.w3.org/2000/svg" p-id="5747" width="200" height="200"><path d="M695.633 62.902v163.215c0 21.311 17.18 38.6 38.6 38.6h160.873L695.633 62.903z m38.599 241.648c-43.285-0.115-78.426-35.257-78.426-78.542V62.455H196.28c-38.16 0-69.172 30.903-69.172 69.172v752.935c0 38.152 30.903 69.17 69.172 69.17h629.322c38.153 0 69.172-30.902 69.172-69.17V304.435H734.232v0.115zM396.566 557.685h-40.039l-28.394-52.5c-1.02-1.904-2.078-5.344-3.167-10.315h-0.408c-0.547 2.452-1.773 5.993-3.678 10.623l-28.497 52.193h-40.345l50.762-79.158-46.371-79.055h41.06l23.593 48.414c1.905 3.95 3.54 8.309 4.904 13.074h0.408c1.43-4.29 3.167-8.818 5.209-13.584l26.046-47.904h37.688l-47.8 78.443 49.029 79.769z m112.25 0h-92.844V399.472h33.706v130.636h59.138v27.577z m14.3-39.834c12.732 10.555 27.203 15.832 43.409 15.832 9.193 0 16.103-1.584 20.734-4.748 4.63-3.167 6.945-7.235 6.945-12.207 0-4.29-1.838-8.339-5.516-12.154-3.677-3.813-13.38-8.988-29.11-15.526-24.717-10.485-37.076-25.739-37.076-45.759 0-14.708 5.6-26.13 16.803-34.268 11.2-8.135 26.028-12.205 44.48-12.205 15.457 0 28.43 2.01 38.915 6.026v31.663c-10.622-7.217-23.05-10.827-37.28-10.827-8.31 0-14.948 1.516-19.917 4.545-4.97 3.03-7.457 7.098-7.457 12.205 0 4.086 1.702 7.848 5.107 11.286 3.404 3.439 11.813 8.087 25.229 13.942 15.729 6.741 26.538 13.858 32.43 21.348 5.889 7.491 8.834 16.41 8.834 26.76 0 15.185-5.379 26.76-16.138 34.726-10.76 7.967-26.045 11.95-45.86 11.95-18.114 0-32.957-2.927-44.534-8.784v-33.805z m260.148 39.834h-40.039l-28.394-52.5c-1.02-1.904-2.078-5.344-3.167-10.315h-0.408c-0.547 2.452-1.773 5.993-3.678 10.623l-28.497 52.193h-40.346l50.763-79.158-46.371-79.055h41.06l23.593 48.414c1.905 3.95 3.54 8.309 4.904 13.074h0.408c1.43-4.29 3.167-8.818 5.209-13.584l26.045-47.904h37.69l-47.801 78.443 49.029 79.769z m62.467 110.261L765.98 785.393l79.097 123.546h-81.275l-35.953-66.458c-4.94-9.152-8.355-16.343-10.241-21.572h-0.872c-2.615 6.973-5.883 13.945-9.805 20.918l-36.608 67.112h-80.84l81.494-119.842-76.7-121.15h81.495l35.735 69.291c3.486 6.684 6.755 14.092 9.805 22.226h0.871c1.45-4.936 4.795-12.42 10.024-22.443l36.824-69.073h76.7z" p-id="5748" fill="#107c41"></path></svg>