<svg t="1625627308489" class="icon" viewBox="0 0 1024 1024" version="1.1" xmlns="http://www.w3.org/2000/svg" p-id="4854" width="200" height="200"><path d="M695.633 62.398v163.215c0 21.311 17.18 38.6 38.6 38.6h160.873L695.633 62.399z m38.599 241.648c-43.285-0.115-78.426-35.257-78.426-78.542V61.952H196.28c-38.16 0-69.172 30.902-69.172 69.171V884.06c0 38.151 30.903 69.17 69.172 69.17h629.322c38.153 0 69.172-30.903 69.172-69.17V303.93H734.232v0.115zM219.3 561.364V403.151h54.645c56.176 0 84.265 25.706 84.265 77.115 0 24.447-7.866 44.073-23.595 58.885-15.729 14.808-36.022 22.215-60.874 22.215h-54.441z m33.706-130.636v103.058h18.385c16.001 0 28.563-4.765 37.689-14.3 9.123-9.533 13.686-22.435 13.686-38.71 0-15.73-4.767-28.003-14.3-36.822-9.534-8.818-21.926-13.227-37.178-13.227h-18.282z m121.953 53.623c0-24.784 7.235-44.957 21.705-60.517 14.468-15.56 33.586-23.34 57.35-23.34 22.607 0 40.804 7.526 54.593 22.574 13.788 15.05 20.683 34.388 20.683 58.016 0 24.65-7.168 44.653-21.5 60.005-14.334 15.357-33.11 23.034-56.33 23.034-22.676 0-41.096-7.439-55.258-22.317-14.16-14.877-21.243-34.03-21.243-57.455z m35.442-1.838c0 15.39 3.711 27.97 11.133 37.74 7.42 9.773 17.602 14.658 30.539 14.658 13.21 0 23.492-4.68 30.846-14.044 7.353-9.362 11.03-21.942 11.03-37.74 0-16.478-3.574-29.5-10.723-39.068-7.15-9.565-17.229-14.352-30.234-14.352-13.212 0-23.612 4.904-31.203 14.709-7.592 9.805-11.388 22.505-11.388 38.097z m258.514 73.132c-11.508 5.654-26.523 8.478-45.044 8.478-23.834 0-42.743-7.132-56.739-21.4-13.991-14.264-20.99-33.277-20.99-57.043 0-24.989 7.816-45.434 23.442-61.335 15.628-15.897 35.8-23.849 60.517-23.849 15.457 0 28.394 2.01 38.813 6.026v32.582c-10.69-6.264-22.812-9.397-36.362-9.397-15.458 0-27.816 4.939-37.076 14.81-9.261 9.875-13.891 22.777-13.891 38.711 0 15.526 4.391 28.022 13.176 37.486 8.784 9.464 20.665 14.197 35.647 14.197 14.094 0 26.93-3.402 38.506-10.213v30.947z m155.047 5.72h-40.038l-28.394-52.5c-1.021-1.904-2.078-5.343-3.167-10.315h-0.409c-0.547 2.452-1.772 5.994-3.677 10.622l-28.498 52.194h-40.345l50.763-79.158-46.372-79.055h41.06l23.594 48.414c1.905 3.95 3.54 8.308 4.903 13.074h0.409c1.43-4.29 3.167-8.818 5.208-13.585l26.046-47.903h37.689l-47.8 78.442 49.028 79.77zM744.61 920.217l-34.972-164.63-39.238 164.63h-56.296l-58.005-278.08h57.149l29.854 173.16 40.093-173.16h54.59l34.12 173.16 26.445-123.684h-23.034v-49.475h87.86l-66.533 278.079H744.61z m0 0" p-id="4855" fill="#185abd"></path></svg>