<svg t="1625627356755" class="icon" viewBox="0 0 1024 1024" version="1.1" xmlns="http://www.w3.org/2000/svg" p-id="5029" width="200" height="200"><path d="M695.633 62.398v163.215c0 21.311 17.18 38.6 38.6 38.6h160.873L695.633 62.399z m38.599 241.648c-43.285-0.115-78.426-35.257-78.426-78.542V61.952H196.28c-38.16 0-69.172 30.902-69.172 69.171V884.06c0 38.151 30.903 69.17 69.172 69.17h629.322c38.153 0 69.172-30.903 69.172-69.17V303.93H734.232v0.115zM367.359 506.209v55.155h-33.706V403.151h54.44c39.356 0 59.036 16.685 59.036 50.049 0 16.207-5.942 29.196-17.824 38.966-11.882 9.771-26.744 14.453-44.583 14.044H367.36z m0-76.91v51.07h14.606c19.815 0 29.722-8.613 29.722-25.842 0-16.818-9.805-25.228-29.417-25.228H367.36z m137.479 76.91v55.155h-33.706V403.151h54.44c39.358 0 59.036 16.685 59.036 50.049 0 16.207-5.942 29.196-17.824 38.966-11.882 9.771-26.744 14.453-44.583 14.044h-17.363z m0-76.91v51.07h14.606c19.815 0 29.722-8.613 29.722-25.842 0-16.818-9.805-25.228-29.417-25.228h-14.911z m212.96 1.43h-45.146v130.635h-33.808V430.728h-45.043v-27.577h123.996v27.577z m25.537 381.539c-45.376 0-29.967-0.856-55.653 0v83.91c0 15.41-12.842 28.254-28.253 28.254-15.414 0-28.256-12.844-28.256-28.255v-279.98h115.586c29.114-1.713 57.368 6.848 80.486 24.83 19.695 17.124 30.825 42.811 29.11 69.352 1.715 28.255-9.415 55.654-29.11 76.203-23.975 18.836-53.942 28.256-83.91 25.686zM789.57 669.28c-11.128-14.554-28.255-23.115-46.235-24.83h-56.508v140.418h55.654c18.836-1.711 35.103-10.274 46.234-25.685 12.842-12.843 18.836-29.968 17.124-47.948 2.568-16.267-4.282-31.678-16.27-41.955z m0 0" p-id="5030" fill="#c43e1c"></path></svg>