<?xml version="1.0" standalone="no"?><!DOCTYPE svg PUBLIC "-//W3C//DTD SVG 1.1//EN" "http://www.w3.org/Graphics/SVG/1.1/DTD/svg11.dtd"><svg t="1638432921238" class="icon" viewBox="0 0 1024 1024" version="1.1" xmlns="http://www.w3.org/2000/svg" p-id="13175" xmlns:xlink="http://www.w3.org/1999/xlink" width="200" height="200"><defs><style type="text/css"></style></defs><path d="M695.633 62.902v163.215c0 21.311 17.18 38.6 38.6 38.6h160.873L695.633 62.903z m38.599 241.648c-43.285-0.115-78.426-35.257-78.426-78.542V62.455H196.28c-38.16 0-69.172 30.903-69.172 69.172v752.935c0 38.152 30.903 69.17 69.172 69.17h629.322c38.153 0 69.172-30.902 69.172-69.17V304.435H734.232v0.115z m-68.164 350.86h-0.78v6.587c0 1.781 0 3.569-0.56 5.464 0 1.786 0 3.569-0.555 6.024-7.25 41.945-41.28 76.2-76.76 76.2-35.249 0-57.562-34.139-49.756-76.2 7.255-41.95 41.28-76.197 76.76-76.197 1.78 0 3.011 0.56 4.237 0.56V413.321l-216.878 36.481V696.13c0 6.024 0 12.05-1.232 18.074-7.248 41.952-41.274 76.2-76.752 76.2-34.695 0-57.562-34.136-49.757-76.198 7.252-41.945 41.281-76.2 76.754-76.2 1.788 0 3.013 0.561 4.243 0.561V430.058c0-11.38 8.368-21.649 19.857-23.43l263.622-44.962c6.586-1.226 13.837 0.56 19.192 5.353 5.355 4.8 8.367 10.825 8.367 18.075V655.41z m0 0" p-id="13176" fill="#1296db"></path></svg>