<svg t="1625627247993" class="icon" viewBox="0 0 1024 1024" version="1.1" xmlns="http://www.w3.org/2000/svg" p-id="4642" width="200" height="200"><path d="M695.633 62.398v163.215c0 21.311 17.18 38.6 38.6 38.6h160.873L695.633 62.399z m38.599 241.648c-43.285-0.115-78.426-35.257-78.426-78.542V61.952H196.28c-38.16 0-69.172 30.902-69.172 69.171V884.06c0 38.151 30.903 69.17 69.172 69.17h629.322c38.153 0 69.172-30.903 69.172-69.17V303.93H734.232v0.115z m-428.47 257.318V403.151h54.645c56.176 0 84.265 25.706 84.265 77.115 0 24.447-7.865 44.073-23.594 58.885-15.73 14.808-36.023 22.215-60.875 22.215h-54.441z m33.706-130.636v103.058h18.386c16 0 28.562-4.765 37.688-14.3 9.123-9.533 13.686-22.435 13.686-38.71 0-15.73-4.766-28.003-14.3-36.822-9.534-8.818-21.926-13.227-37.178-13.227h-18.282z m121.954 53.623c0-24.784 7.234-44.957 21.704-60.517 14.468-15.56 33.586-23.34 57.35-23.34 22.607 0 40.805 7.526 54.594 22.574 13.788 15.05 20.682 34.388 20.682 58.016 0 24.65-7.168 44.653-21.5 60.005-14.334 15.357-33.11 23.034-56.33 23.034-22.676 0-41.096-7.439-55.257-22.317-14.16-14.877-21.243-34.03-21.243-57.455z m35.442-1.838c0 15.39 3.71 27.97 11.132 37.74 7.42 9.773 17.602 14.658 30.54 14.658 13.21 0 23.492-4.68 30.845-14.044 7.353-9.362 11.03-21.942 11.03-37.74 0-16.478-3.573-29.5-10.723-39.068-7.15-9.565-17.228-14.352-30.234-14.352-13.212 0-23.612 4.904-31.203 14.709-7.591 9.805-11.387 22.505-11.387 38.097z m258.513 73.132c-11.507 5.654-26.522 8.478-45.043 8.478-23.834 0-42.744-7.132-56.74-21.4-13.991-14.264-20.989-33.277-20.989-57.043 0-24.989 7.815-45.434 23.44-61.335 15.63-15.897 35.801-23.849 60.518-23.849 15.457 0 28.394 2.01 38.813 6.026v32.582c-10.69-6.264-22.812-9.397-36.361-9.397-15.459 0-27.817 4.939-37.077 14.81-9.26 9.875-13.89 22.777-13.89 38.711 0 15.526 4.39 28.022 13.175 37.486 8.784 9.464 20.665 14.197 35.647 14.197 14.095 0 26.93-3.402 38.506-10.213v30.947zM744.61 920.218l-34.972-164.63-39.238 164.63h-56.296l-58.005-278.08h57.149l29.854 173.16 40.093-173.16h54.59l34.12 173.16 26.445-123.684h-23.034v-49.475h87.86l-66.533 278.079H744.61z m0 0" p-id="4643" fill="#185abd"></path></svg>