<svg t="1625627577202" class="icon" viewBox="0 0 1024 1024" version="1.1" xmlns="http://www.w3.org/2000/svg" p-id="5930" width="200" height="200"><path d="M695.633 62.398v163.215c0 21.311 17.18 38.6 38.6 38.6h160.873L695.633 62.399z m38.599 241.648c-43.285-0.115-78.426-35.257-78.426-78.542V61.952H196.28c-38.16 0-69.172 30.902-69.172 69.171V884.06c0 38.151 30.903 69.17 69.172 69.17h629.322c38.153 0 69.172-30.903 69.172-69.17V303.93H734.232v0.115zM353.413 506.209v55.155h-33.706V403.151h54.44c39.357 0 59.037 16.685 59.037 50.049 0 16.207-5.943 29.196-17.824 38.966-11.883 9.771-26.744 14.453-44.583 14.044h-17.364z m0-76.91v51.07h14.607c19.815 0 29.721-8.613 29.721-25.842 0-16.818-9.805-25.228-29.416-25.228h-14.912z m103.773 132.065V403.151h54.645c56.176 0 84.265 25.706 84.265 77.115 0 24.447-7.865 44.073-23.594 58.885-15.729 14.808-36.02 22.215-60.874 22.215h-54.442z m33.706-130.636v103.058h18.386c16 0 28.563-4.765 37.689-14.3 9.124-9.533 13.686-22.435 13.686-38.71 0-15.73-4.767-28.003-14.3-36.822-9.534-8.818-21.926-13.227-37.178-13.227h-18.283z m222.05 0H656.46v40.651h51.988v27.577H656.46v62.407h-33.706V403.15h90.189v27.577z m124.932 413.674c-28.274-2.094-55.503-12.566-77.493-31.415-42.934 9.425-83.774 23.04-124.616 39.792-32.462 57.597-62.834 86.919-89.013 86.919-5.235 0-11.519-1.047-15.708-4.19-11.52-5.234-17.803-16.755-17.803-28.274 0-9.424 2.095-35.605 101.58-78.54 23.039-41.888 40.841-84.823 55.502-129.852-12.566-25.132-39.794-86.917-20.947-118.332 6.286-11.52 18.853-17.806 32.463-16.757 10.475 0 20.946 5.237 27.227 13.614 13.615 18.85 12.57 58.644-5.234 117.287 16.754 31.415 38.746 59.692 64.926 83.775 21.993-4.189 43.984-7.33 65.974-7.33 49.219 1.048 56.551 24.084 55.503 37.7 0 35.603-34.558 35.603-52.361 35.603zM544.657 909.33l3.142-1.047c14.66-5.235 26.177-15.708 34.558-29.32-15.708 6.28-28.275 16.754-37.7 30.367z m139.277-314.161h-3.14c-1.048 0-3.143 0-4.189 1.046-4.19 17.804-1.048 36.652 6.283 53.408 6.284-17.802 6.284-36.653 1.046-54.454z m7.332 151.845l-1.047 2.095-1.047-1.049c-9.426 24.087-19.898 48.17-31.415 71.21l2.095-1.048v2.095c23.037-8.379 48.17-15.707 71.209-20.945l-1.048-1.049h3.142c-15.71-15.705-30.37-33.507-41.889-51.309z m142.42 55.5c-9.426 0-17.804 0-27.227 2.097 10.472 5.234 20.945 7.329 31.415 8.377 7.332 1.046 14.662 0 20.944-2.094-0.001-3.143-4.189-8.38-25.132-8.38z m0 0" p-id="5931" fill="#de0011"></path></svg>