<svg t="1625627657506" class="icon" viewBox="0 0 1024 1024" version="1.1" xmlns="http://www.w3.org/2000/svg" p-id="6398" width="200" height="200"><path d="M695.633 62.398v163.215c0 21.311 17.18 38.6 38.6 38.6h160.873L695.633 62.399z m38.599 241.648c-43.285-0.115-78.426-35.257-78.426-78.542V61.952H196.28c-38.16 0-69.172 30.902-69.172 69.171V884.06c0 38.151 30.903 69.17 69.172 69.17h629.322c38.153 0 69.172-30.903 69.172-69.17V303.93H734.232v0.115zM465.174 710.259c-4.358-11.802-6.537-23.97-6.537-36.498 0-30.684 14.525-58.287 43.579-82.8 17.977-15.254 30.139-27.96 36.498-38.133 6.355-10.167 9.533-21.15 9.533-32.957 0-12.89-4.54-23.466-13.62-31.731-9.082-8.26-20.793-12.393-35.135-12.393-33.595 0-64.823 12.895-93.696 38.676v-84.435c30.323-18.156 64.824-27.237 103.501-27.237 39.222 0 70.178 9.083 92.88 27.237 22.695 18.16 34.046 44.035 34.046 77.625 0 20.155-4.452 38.404-13.346 54.747-8.899 16.343-25.241 34.229-49.027 53.658-19.066 15.98-30.872 28.42-35.408 37.315-4.54 8.898-6.81 18.342-6.81 28.327 0 9.805 2.452 19.338 7.354 28.599h-73.812z m-11.167 81.166c0-13.436 5.082-24.555 15.253-33.366 10.168-8.805 22.514-13.21 37.043-13.21 13.98 0 26.011 4.404 36.09 13.21 10.078 8.81 15.116 19.93 15.116 33.366 0 13.257-4.724 24.377-14.163 33.366-9.442 8.988-20.794 13.482-34.046 13.482-16.886 0-30.327-4.63-40.31-13.89-9.99-9.262-14.983-20.247-14.983-32.958z" p-id="6399" fill="#fdd873"></path></svg>