<svg t="1625627619116" class="icon" viewBox="0 0 1024 1024" version="1.1" xmlns="http://www.w3.org/2000/svg" p-id="6207" width="200" height="200"><path d="M695.633 62.398v163.215c0 21.311 17.18 38.6 38.6 38.6h160.873L695.633 62.399z m38.599 241.648c-43.285-0.115-78.426-35.257-78.426-78.542V61.952H196.28c-38.16 0-69.172 30.902-69.172 69.171V884.06c0 38.151 30.903 69.17 69.172 69.17h629.322c38.153 0 69.172-30.903 69.172-69.17V303.93H734.232v0.115zM497.808 421.434l-80.894 112.352h80.792v27.577H371.258v-18.794l82.323-111.842h-76.196V403.15h120.423v18.284z m70.68 7.967h-13.584v105.714h13.584v26.25h-60.67v-26.25h13.38V429.4h-13.38v-26.25h60.67v26.25z m56.687 76.808v55.155h-33.706V403.151h54.44c39.358 0 59.036 16.685 59.036 50.049 0 16.207-5.942 29.196-17.823 38.966-11.883 9.771-26.745 14.453-44.584 14.044h-17.363z m0-76.91v51.07h14.606c19.815 0 29.722-8.613 29.722-25.842 0-16.818-9.805-25.228-29.416-25.228h-14.912z m84.85 233.698c0 9.241-7.494 16.734-16.735 16.734h-65.543c-9.242 0-16.735-7.493-16.735-16.734v-8.368c0-9.241 7.493-16.734 16.735-16.734h65.543c9.241 0 16.734 7.493 16.734 16.734v8.368z m0 55.781c0 9.242-7.494 16.735-16.735 16.735h-65.543c-9.242 0-16.735-7.493-16.735-16.735v-8.367c0-9.242 7.493-16.735 16.735-16.735h65.543c9.241 0 16.734 7.493 16.734 16.735v8.367z m0 55.782c0 9.241-7.494 16.734-16.735 16.734h-65.543c-9.242 0-16.735-7.493-16.735-16.734v-8.368c0-9.241 7.493-16.734 16.735-16.734h65.543c9.241 0 16.734 7.493 16.734 16.734v8.368z m111.813-90.645c0 9.241-7.493 16.734-16.734 16.734H739.56c-9.241 0-16.734-7.493-16.734-16.734v-8.367c0-9.242 7.493-16.735 16.734-16.735h65.544c9.241 0 16.734 7.493 16.734 16.735v8.367z m0 55.781c0 9.242-7.493 16.735-16.734 16.735H739.56c-9.241 0-16.734-7.493-16.734-16.735v-8.367c0-9.242 7.493-16.734 16.734-16.734h65.544c9.241 0 16.734 7.492 16.734 16.734v8.367z m0 55.782c0 9.241-7.493 16.734-16.734 16.734H739.56c-9.241 0-16.734-7.493-16.734-16.734v-8.368c0-9.241 7.493-16.734 16.734-16.734h65.544c9.241 0 16.734 7.493 16.734 16.734v8.368zM710.024 830.34c0 9.242-7.493 16.734-16.734 16.734h-65.543c-9.242 0-16.735-7.492-16.735-16.734v-8.367c0-9.242 7.493-16.735 16.735-16.735h65.543c9.241 0 16.734 7.493 16.734 16.735v8.367z m108.774 20.918c0 9.242-7.493 16.735-16.734 16.735H736.52c-9.241 0-16.734-7.493-16.734-16.735v-8.367c0-9.242 7.493-16.735 23.707-16.735h65.543c2.27 0 9.762 7.493 9.762 16.735v8.367zM708.63 896.053c0 9.242-7.493 16.734-16.735 16.734h-62.754c-9.242 0-16.734-7.492-16.734-16.734v-11.325c0-9.242 7.492-16.734 16.734-16.734h62.754c9.242 0 16.735 7.492 16.735 16.734v11.325z m108.773 15.256c0 9.242-7.492 16.735-16.734 16.735h-62.754c-9.242 0-16.735-7.493-16.735-16.735v-11.325c0-9.241 7.493-16.734 16.735-16.734h62.754c9.242 0 16.734 7.493 16.734 16.734v11.325z" p-id="6208" fill="#fdd873"></path></svg>