<?xml version="1.0" standalone="no"?><!DOCTYPE svg PUBLIC "-//W3C//DTD SVG 1.1//EN" "http://www.w3.org/Graphics/SVG/1.1/DTD/svg11.dtd"><svg class="icon" width="200px" height="200.00px" viewBox="0 0 1024 1024" version="1.1" xmlns="http://www.w3.org/2000/svg"><path fill="#cfcfcf" d="M695.633 62.902v163.215c0 21.311 17.18 38.6 38.6 38.6h160.873L695.633 62.903z m38.599 241.648c-43.285-0.115-78.426-35.257-78.426-78.542V62.455H196.28c-38.16 0-69.172 30.903-69.172 69.172v752.935c0 38.152 30.903 69.17 69.172 69.17h629.322c38.153 0 69.172-30.902 69.172-69.17V304.435H734.232v0.115z m-333.116 85.287c41.387 0 74.931 34.014 74.931 76.022 0 41.93-33.545 75.97-74.93 75.97-41.44 0-75.037-34.038-75.037-75.97 0.002-41.984 33.598-76.022 75.036-76.022z m-90.094 416.095a23.37 23.37 0 0 1-15.422-5.79c-9.993-8.754-11.148-23.896-2.595-34.064l110.5-142.336c8.019-9.63 22.184-11.276 32.194-3.737l65.015 71.478 160.04-196.806c8.152-10.437 50.345-59.56 75.79-3.867 0.052-0.052 0.052 63.013 0.128 138.204 0.052 78.54 0.052 176.866 0.052 176.866-0.569-0.052-425.468 0.052-425.674 0.052h-0.028z" /></svg>